<svg width="164" height="22" viewBox="0 0 164 22" fill="none" xmlns="http://www.w3.org/2000/svg">
<g clip-path="url(#clip0_241_60046)">
<path d="M2.68556 0.349379H2.94534C3.53994 0.349379 3.62365 0.648858 3.84302 1.35939H4.08836V0.0205383H0.246521V1.35939H0.491868C0.711237 0.648858 0.79783 0.349379 1.39244 0.349379H1.65221V4.27197C1.65221 4.52741 1.60603 4.63605 1.40109 4.64779L1.03163 4.67715V4.94727H3.30903V4.67715L2.93956 4.64779C2.73174 4.63311 2.68844 4.52741 2.68844 4.27197V0.349379H2.68556Z" fill="white"/>
<path d="M7.98504 2.59253V4.06351C7.98504 4.55383 7.93886 4.57438 7.33271 4.61255V4.94726H9.82081V4.61255C9.21466 4.57438 9.16848 4.55383 9.16848 4.06351V0.90429C9.16848 0.413966 9.21178 0.393413 9.82081 0.355244V0.023468H7.33271V0.355244C7.93886 0.393413 7.98504 0.413966 7.98504 0.90429V2.20203H6.15793V0.90429C6.15793 0.413966 6.20123 0.393413 6.80738 0.355244V0.023468H4.32216V0.355244C4.92831 0.393413 4.97161 0.413966 4.97161 0.90429V4.06644C4.97161 4.55677 4.92831 4.57732 4.32216 4.61549V4.9502H6.81026V4.61549C6.20411 4.57732 6.16082 4.55677 6.16082 4.06644V2.59547H7.98793L7.98504 2.59253Z" fill="white"/>
<path d="M13.5559 1.60308H13.2182C13.1662 2.11395 13.0479 2.20203 12.5774 2.20203H11.8384V0.660596C11.8384 0.463879 11.8644 0.413966 12.0347 0.413966H12.5427C13.1316 0.413966 13.426 0.510856 13.5328 1.31828H13.8705V0.023468H9.99979V0.355244C10.6059 0.393413 10.6521 0.413966 10.6521 0.90429V4.06644C10.6521 4.55677 10.6088 4.57732 9.99979 4.61549V4.9502H14.0408L14.1216 3.55557H13.7839C13.7319 3.90789 13.6425 4.21325 13.4895 4.35124C13.3365 4.48924 13.0421 4.55677 12.6871 4.55677C12.3667 4.55677 12.0809 4.53621 11.9741 4.44813C11.876 4.36005 11.8413 4.23086 11.8413 3.89909V2.59253H12.5803C13.0536 2.59253 13.1691 2.70117 13.221 3.21204H13.5588V1.60308H13.5559Z" fill="white"/>
<path d="M0.246521 6.18336V7.03482C1.64933 7.10235 1.8052 7.21392 1.8052 8.35605V19.5131C1.8052 20.6553 1.64644 20.7698 0.246521 20.8344V21.6858H6.15216C9.23199 21.6858 14.1101 21.2161 14.1101 13.776C14.1101 11.2657 13.5385 9.38368 12.3926 8.10648C11.2467 6.82929 9.58702 6.20097 7.02098 6.18042H0.246521V6.18336ZM4.96584 7.84224C4.96584 7.32842 5.36128 7.21392 6.60533 7.21392C9.25219 7.21392 10.6146 9.45414 10.6146 13.779C10.6146 19.6952 8.48152 20.6582 6.54761 20.6582C5.30355 20.6582 4.96873 20.3881 4.96873 19.6717V7.8393L4.96584 7.84224Z" fill="white"/>
<path d="M22.3595 7.38421C25.0612 7.38421 25.9098 10.8429 25.9098 14.0902C25.9098 17.3375 25.0612 20.7962 22.3595 20.7962C19.6578 20.7962 18.8352 17.3375 18.8352 14.0902C18.8352 10.8429 19.6578 7.38421 22.3595 7.38421ZM22.3595 21.997C26.9172 21.997 29.6737 19.4397 29.6737 14.0902C29.6737 8.74068 26.9172 6.18042 22.3595 6.18042C17.8018 6.18042 15.0712 8.7348 15.0712 14.0902C15.0712 19.4456 17.7729 21.997 22.3595 21.997Z" fill="white"/>
<path d="M29.3273 21.6388H34.5749V20.6171L33.7003 20.4967C32.9844 20.4057 32.615 20.1943 32.5342 19.5337C32.4562 18.8408 32.4014 18.0891 32.4014 16.947V9.31028H32.5861L36.9071 21.4597H38.18L42.8185 9.49231H42.9513V18.9347C42.9513 20.438 42.8185 20.4997 41.0174 20.62V21.6418H48.2537V20.62C46.4525 20.4997 46.3198 20.438 46.3198 18.9347V9.24862C46.3198 7.74535 46.4525 7.68663 48.2537 7.56625V6.54449H42.5818L38.714 16.4361H38.6621L35.0569 6.54449H29.2552V7.56625C31.0563 7.68663 31.1891 7.74535 31.1891 9.24862V16.947C31.1891 18.0891 31.1371 18.8408 31.0303 19.5337C30.9235 20.1943 30.5541 20.4351 30.1038 20.4967L29.336 20.6171V21.6388H29.3273Z" fill="white"/>
<path d="M54.523 9.24862C54.523 7.74535 54.6558 7.68663 56.4598 7.56625V6.54449H49.0648V7.56625C50.8659 7.68663 50.9987 7.74535 50.9987 9.24862V18.9318C50.9987 20.4351 50.8659 20.4967 49.0648 20.6171V21.6388H56.4598V20.6171C54.6587 20.4967 54.523 20.4351 54.523 18.9318V9.24862Z" fill="white"/>
<path d="M57.1439 6.5445V7.56625C58.945 7.68663 59.0778 7.74535 59.0778 9.24862V16.947C59.0778 18.0891 59.0258 18.8408 58.9191 19.5337C58.8123 20.1943 58.4428 20.4351 57.9925 20.4967L57.2247 20.6171V21.6389H62.4722V20.6171L61.5977 20.4967C60.8818 20.4057 60.5095 20.1943 60.4315 19.5337C60.3507 18.8408 60.2988 18.0891 60.2988 16.947V9.5804H60.4315C62.4982 12.9481 65.2288 17.3111 67.9305 21.6389H70.5802V11.2334C70.5802 10.0913 70.6351 9.33964 70.739 8.64673C70.8458 7.98611 71.2153 7.74535 71.6655 7.6837L72.4333 7.56332V6.54156H67.1858V7.56332L68.0604 7.6837C68.7762 7.77472 69.1457 7.98318 69.2265 8.64673C69.3073 9.33671 69.3593 10.0883 69.3593 11.2334V17.3375H69.2265C67.3186 14.2987 64.8276 10.4231 62.4694 6.54156H57.141L57.1439 6.5445Z" fill="white"/>
<path d="M78.7056 9.24862C78.7056 7.74535 78.8383 7.68663 80.6395 7.56625V6.54449H73.2444V7.56625C75.0455 7.68663 75.1783 7.74535 75.1783 9.24862V18.9318C75.1783 20.4351 75.0455 20.4967 73.2444 20.6171V21.6388H80.6395V20.6171C78.8383 20.4967 78.7056 20.4351 78.7056 18.9318V9.24862Z" fill="white"/>
<path d="M88.0085 7.38421C90.7102 7.38421 91.5588 10.8429 91.5588 14.0902C91.5588 17.3375 90.7102 20.7962 88.0085 20.7962C85.3068 20.7962 84.4842 17.3375 84.4842 14.0902C84.4842 10.8429 85.3068 7.38421 88.0085 7.38421ZM88.0085 21.997C92.5662 21.997 95.3228 19.4397 95.3228 14.0902C95.3228 8.74068 92.5662 6.18042 88.0085 6.18042C83.4508 6.18042 80.7203 8.7348 80.7203 14.0902C80.7203 19.4456 83.422 21.997 88.0085 21.997Z" fill="white"/>
<path d="M95.1207 6.5445V7.56625C96.9218 7.68663 97.0546 7.74535 97.0546 9.24862L96.9969 16.486C96.9969 17.6282 97.0027 18.8408 96.8959 19.5337C96.7891 20.1943 96.4196 20.4351 95.9693 20.4967L95.2015 20.6171V21.6389H100.449V20.6171L99.5745 20.4967C98.8586 20.4057 98.4892 20.1943 98.4083 19.5337C98.3275 18.8408 98.2756 18.0891 98.2756 16.947V9.5804H98.4083C100.475 12.9481 103.206 17.3111 105.907 21.6389H108.557V11.2334C108.557 10.0913 108.609 9.33964 108.716 8.64673C108.823 7.98611 109.192 7.74535 109.642 7.6837L110.413 7.56332V6.54156H105.165V7.56332L106.04 7.6837C106.756 7.77472 107.128 7.98318 107.206 8.64673C107.284 9.33671 107.339 10.0883 107.339 11.2334V17.3375H107.206C105.298 14.2987 102.807 10.4231 100.449 6.54156H95.1236L95.1207 6.5445Z" fill="white"/>
<path d="M119.71 21.6887V20.8813C117.973 20.7698 117.814 20.6582 117.814 19.5161V15.5289H118.997C120.853 15.5289 122.314 15.1472 123.223 14.4073C124.21 13.5999 124.744 12.3902 124.744 10.7343C124.744 8.94032 124.034 7.7101 123.064 7.03774C122.094 6.36538 120.813 6.18628 119.214 6.18628H113.092V7.03774C114.494 7.10527 114.653 7.21684 114.653 8.35897V19.519C114.653 20.6611 114.494 20.7727 113.092 20.8402V21.6917H119.707L119.71 21.6887ZM117.814 8.04481C117.814 7.41649 117.973 7.21684 118.98 7.21684C120.302 7.21684 121.428 8.22391 121.428 10.8018C121.428 12.5047 120.914 14.4983 118.919 14.4983C118.149 14.4983 117.814 14.3867 117.814 13.5353V8.04188V8.04481Z" fill="white"/>
<path d="M132.682 7.38421C135.386 7.38421 136.232 10.8429 136.232 14.0902C136.232 17.3375 135.386 20.7962 132.682 20.7962C129.977 20.7962 129.158 17.3375 129.158 14.0902C129.158 10.8429 129.98 7.38421 132.682 7.38421ZM132.682 21.997C137.24 21.997 139.996 19.4397 139.996 14.0902C139.996 8.74068 137.24 6.18042 132.682 6.18042C128.124 6.18042 125.394 8.7348 125.394 14.0902C125.394 19.4456 128.098 21.997 132.682 21.997Z" fill="white"/>
<path d="M149.957 11.022V7.2051C149.005 6.57385 147.201 6.18335 145.824 6.18335C142.141 6.18335 140.498 8.31788 140.498 10.9956C140.498 13.6733 142.698 14.7831 144.738 15.567C145.905 16.0192 147.68 16.7708 147.68 18.4532C147.68 20.0181 146.724 20.7991 145.322 20.7991C143.466 20.7991 142.008 19.0845 141.373 16.4978H140.366L140.55 20.4967C141.61 21.5185 143.624 22 145.322 22C149.536 22 150.835 19.7157 150.835 17.1878C150.835 14.0315 148.448 13.0391 146.568 12.3168C145.535 11.9263 143.546 11.1747 143.546 9.58039C143.546 8.34724 144.369 7.3842 145.798 7.3842C147.362 7.3842 148.502 8.40596 148.95 11.022H149.957Z" fill="white"/>
<path d="M158.971 7.74535H160.19C161.913 7.74535 162.47 8.34725 162.813 10.8106H163.821V6.54156H150.595V10.8106H151.602C151.946 8.34431 152.503 7.74535 154.226 7.74535H155.447V18.9318C155.447 20.4351 155.314 20.4967 153.248 20.6171V21.6389H161.171V20.6171C159.104 20.4967 158.971 20.438 158.971 18.9318V7.74535Z" fill="white"/>
</g>
<path d="M108.585 0H105.056V0.272001C105.101 0.278477 105.168 0.29143 105.257 0.317335C105.345 0.34324 105.412 0.362668 105.462 0.395049C105.54 0.440383 105.59 0.492193 105.612 0.544002C105.634 0.595812 105.64 0.667051 105.64 0.751241V4.25488C105.64 4.34554 105.629 4.41678 105.601 4.47507C105.579 4.53335 105.529 4.57869 105.457 4.61754C105.418 4.63697 105.357 4.64993 105.268 4.66288C105.179 4.67583 105.106 4.68878 105.056 4.68878V4.96078H108.785L108.863 3.41297H108.658C108.624 3.52954 108.546 3.7044 108.435 3.93754C108.324 4.17069 108.224 4.34554 108.135 4.46211C108.102 4.50745 108.052 4.53983 107.985 4.56573C107.919 4.59164 107.841 4.60459 107.763 4.61754C107.696 4.6305 107.613 4.63697 107.524 4.63697C107.429 4.63697 107.352 4.63697 107.291 4.63697C107.152 4.63697 107.04 4.6305 106.957 4.61754C106.874 4.60459 106.813 4.57221 106.763 4.52688C106.713 4.48154 106.679 4.41031 106.663 4.32611C106.646 4.23545 106.635 4.11888 106.635 3.96992V2.53868H107.046C107.157 2.53868 107.252 2.55811 107.335 2.58401C107.418 2.61639 107.491 2.67468 107.552 2.75887C107.591 2.81716 107.635 2.9143 107.68 3.06325C107.724 3.2122 107.752 3.33525 107.763 3.4324H107.974V1.37296H107.763C107.752 1.47658 107.718 1.59315 107.68 1.72915C107.635 1.86515 107.591 1.95582 107.552 2.0141C107.485 2.09829 107.407 2.15658 107.324 2.18896C107.241 2.22134 107.146 2.2343 107.04 2.2343H106.629V0.317335H107.207C107.274 0.317335 107.357 0.317335 107.457 0.317335C107.557 0.317335 107.635 0.330287 107.691 0.349716C107.824 0.382097 107.952 0.498669 108.085 0.692955C108.219 0.887242 108.313 1.07505 108.363 1.26286H108.574V0H108.585ZM105.001 0H101.144V1.41829H101.361C101.416 1.20458 101.511 0.977909 101.639 0.738289C101.766 0.492193 101.883 0.362668 101.994 0.34324C102.055 0.336763 102.128 0.323811 102.217 0.317335C102.306 0.310859 102.378 0.304382 102.444 0.304382H102.578V4.23545C102.578 4.31964 102.567 4.39735 102.539 4.46211C102.517 4.52688 102.467 4.57221 102.394 4.61107C102.361 4.6305 102.294 4.64345 102.194 4.6564C102.094 4.66935 102.022 4.67583 101.967 4.68878V4.96078H104.184V4.68878C104.123 4.68231 104.045 4.66288 103.951 4.64345C103.862 4.62402 103.795 4.59812 103.75 4.57869C103.678 4.53983 103.634 4.48802 103.606 4.42326C103.578 4.3585 103.567 4.28726 103.567 4.20307V0.310859H103.7C103.762 0.310859 103.839 0.310859 103.928 0.323811C104.017 0.330287 104.089 0.336763 104.151 0.349716C104.256 0.369144 104.378 0.498669 104.506 0.744765C104.634 0.990862 104.729 1.21753 104.784 1.42477H105.001V0Z" fill="white"/>
<path d="M160.37 2.91667L160.958 1.22647L161.557 2.91667H160.37ZM163.728 4.55196C163.67 4.55196 163.607 4.53366 163.532 4.52145C163.463 4.50315 163.4 4.47874 163.342 4.44213C163.273 4.39331 163.215 4.3445 163.175 4.28958C163.135 4.23467 163.106 4.17365 163.077 4.11263C162.927 3.70991 162.743 3.19736 162.524 2.58107C162.311 1.96479 162.012 1.12884 161.631 0.0732219H161.05C160.773 0.817645 160.526 1.50105 160.301 2.12344C160.076 2.74582 159.852 3.36211 159.627 3.97839C159.592 4.08212 159.546 4.17365 159.489 4.25297C159.431 4.3323 159.368 4.39331 159.287 4.44823C159.241 4.47874 159.178 4.50925 159.097 4.52755C159.016 4.54586 158.942 4.55806 158.878 4.56417V4.82044H160.572V4.56417C160.353 4.53976 160.197 4.50315 160.099 4.45433C160.007 4.40552 159.961 4.3445 159.961 4.27738C159.961 4.25297 159.961 4.21636 159.973 4.16144C159.978 4.10653 160.001 4.015 160.036 3.89296C160.065 3.80144 160.099 3.6916 160.14 3.56957C160.18 3.44753 160.215 3.3438 160.249 3.25227H161.672L162.023 4.22246C162.035 4.25907 162.046 4.28958 162.046 4.30789C162.046 4.3323 162.046 4.3506 162.046 4.36891C162.046 4.41772 161.977 4.46043 161.833 4.49705C161.689 4.53366 161.568 4.55196 161.464 4.56417V4.82044H163.717V4.56417L163.728 4.55196ZM159.408 4.55196C159.362 4.55196 159.31 4.53976 159.247 4.52755C159.184 4.51535 159.132 4.49705 159.08 4.47264C158.976 4.42382 158.884 4.3567 158.798 4.27128C158.711 4.18585 158.636 4.10043 158.573 4.015C158.314 3.6611 158.055 3.29499 157.79 2.92277C157.53 2.55056 157.306 2.23327 157.121 1.97699C157.335 1.73292 157.507 1.53766 157.64 1.38511C157.772 1.23257 157.945 1.04951 158.152 0.83595C158.296 0.689506 158.446 0.585775 158.59 0.524757C158.74 0.463739 158.919 0.414924 159.137 0.390517V0.13424H157.34V0.390517C157.484 0.396619 157.588 0.414924 157.663 0.43323C157.732 0.451535 157.767 0.482044 157.767 0.518655C157.767 0.604081 157.732 0.70171 157.657 0.817645C157.582 0.933579 157.473 1.08612 157.317 1.28138C157.208 1.42173 157.052 1.60478 156.851 1.82445C156.649 2.04411 156.471 2.23327 156.321 2.38581H156.2V0.811543C156.2 0.738321 156.211 0.671201 156.24 0.610183C156.269 0.549164 156.315 0.506451 156.39 0.475942C156.448 0.451535 156.522 0.439331 156.609 0.427128C156.695 0.414924 156.764 0.408822 156.828 0.396619V0.13424H154.558V0.390517C154.61 0.396619 154.679 0.408822 154.766 0.427128C154.852 0.445433 154.927 0.469841 154.985 0.50035C155.059 0.543062 155.111 0.591877 155.134 0.640692C155.157 0.695608 155.169 0.756626 155.169 0.83595V4.15534C155.169 4.24077 155.157 4.30789 155.129 4.3628C155.1 4.41772 155.054 4.46043 154.985 4.49094C154.944 4.50925 154.881 4.52145 154.783 4.52755C154.685 4.53976 154.61 4.54586 154.558 4.54586V4.80214H156.753V4.54586C156.684 4.53976 156.615 4.52145 156.545 4.50315C156.476 4.48484 156.425 4.46654 156.39 4.44823C156.315 4.41162 156.263 4.36281 156.24 4.30789C156.217 4.25297 156.2 4.18585 156.2 4.10653V2.63599H156.35C156.661 3.06922 156.914 3.43533 157.11 3.72211C157.306 4.0089 157.53 4.36891 157.778 4.79603H159.414V4.53976L159.408 4.55196ZM154.351 4.55196C154.288 4.55196 154.207 4.53366 154.115 4.51535C154.023 4.49705 153.954 4.47874 153.913 4.46043C153.838 4.42382 153.792 4.38111 153.763 4.32619C153.735 4.27128 153.723 4.20416 153.723 4.12483V0.811543C153.723 0.732219 153.735 0.665099 153.763 0.604081C153.786 0.543062 153.838 0.50035 153.913 0.469841C153.971 0.445433 154.046 0.43323 154.132 0.421026C154.218 0.408822 154.293 0.40272 154.351 0.390517V0.13424H152.058V0.390517C152.122 0.396619 152.202 0.414924 152.295 0.439331C152.387 0.463739 152.456 0.488146 152.502 0.506451C152.577 0.543062 152.623 0.585775 152.652 0.646793C152.675 0.70171 152.692 0.76883 152.692 0.842052V4.15534C152.692 4.24077 152.681 4.30789 152.652 4.3628C152.623 4.41772 152.577 4.46043 152.502 4.49094C152.462 4.50925 152.393 4.52145 152.289 4.52755C152.185 4.53976 152.11 4.54586 152.058 4.54586V4.80214H154.351V4.54586V4.55196ZM152.105 2.64819H150.342V3.37431H152.105V2.64819ZM149.835 0.13424H146.172V0.390517C146.218 0.396619 146.287 0.408822 146.379 0.43323C146.471 0.457637 146.54 0.482044 146.592 0.506451C146.673 0.549164 146.725 0.597979 146.748 0.646793C146.771 0.695608 146.782 0.762728 146.782 0.842052V4.14314C146.782 4.22857 146.771 4.29568 146.742 4.3506C146.719 4.40552 146.667 4.44823 146.592 4.48484C146.552 4.50315 146.489 4.51535 146.397 4.53366C146.304 4.54586 146.229 4.55806 146.178 4.55806V4.81434H150.054L150.135 3.356H149.922C149.887 3.46584 149.806 3.63059 149.691 3.85025C149.576 4.06992 149.472 4.23467 149.38 4.3445C149.346 4.38721 149.294 4.41772 149.219 4.44213C149.15 4.46654 149.069 4.47874 148.988 4.49094C148.919 4.50315 148.833 4.50925 148.735 4.50925C148.643 4.50925 148.556 4.50925 148.493 4.50925C148.349 4.50925 148.234 4.50315 148.148 4.49094C148.061 4.47874 147.998 4.44823 147.946 4.41162C147.894 4.36891 147.859 4.30179 147.842 4.22246C147.825 4.14314 147.813 4.0272 147.813 3.88686V2.53836H148.24C148.355 2.53836 148.453 2.55666 148.545 2.58107C148.631 2.61158 148.706 2.6665 148.77 2.74582C148.81 2.80074 148.856 2.89227 148.902 3.03261C148.948 3.17295 148.977 3.28888 148.988 3.38041H149.207V1.42783H148.988C148.977 1.51935 148.942 1.63529 148.902 1.76343C148.856 1.89157 148.81 1.97699 148.77 2.03191C148.7 2.11123 148.62 2.16615 148.533 2.19666C148.447 2.22717 148.349 2.23937 148.24 2.23937H147.813V0.43323H148.412C148.482 0.43323 148.568 0.43323 148.672 0.43323C148.775 0.43323 148.856 0.445433 148.914 0.463739C149.052 0.494248 149.184 0.604081 149.323 0.787135C149.461 0.97019 149.559 1.14714 149.616 1.3241H149.835V0.13424ZM146.011 0.13424H142.007V1.47054H142.232C142.29 1.26918 142.388 1.05562 142.52 0.829848C142.653 0.604081 142.774 0.475942 142.889 0.463739C142.952 0.457637 143.027 0.445433 143.119 0.439331C143.211 0.43323 143.286 0.427128 143.355 0.427128H143.493V4.13094C143.493 4.21026 143.482 4.28348 143.453 4.3445C143.43 4.40552 143.378 4.44823 143.303 4.48484C143.269 4.50315 143.2 4.51535 143.096 4.52755C142.992 4.53976 142.918 4.54586 142.86 4.55806V4.81434H145.164V4.55806C145.095 4.55196 145.02 4.53366 144.922 4.51535C144.83 4.49705 144.761 4.47264 144.715 4.45433C144.64 4.41772 144.594 4.36891 144.565 4.30789C144.542 4.24687 144.525 4.17975 144.525 4.10043V0.427128H144.663C144.726 0.427128 144.807 0.427128 144.899 0.439331C144.991 0.451535 145.066 0.451535 145.129 0.463739C145.245 0.482044 145.365 0.604081 145.498 0.829848C145.63 1.06172 145.728 1.27528 145.786 1.47054H146.011V0.13424ZM142.307 2.64819H140.544V3.37431H142.307V2.64819ZM138.528 4.45433C138.39 4.56417 138.223 4.61908 138.033 4.61908C137.843 4.61908 137.67 4.56417 137.538 4.45433C137.405 4.3445 137.29 4.19195 137.204 3.9967C137.117 3.80144 137.054 3.57567 137.014 3.31939C136.973 3.06312 136.956 2.78243 136.956 2.48954C136.956 1.80004 137.048 1.26918 137.232 0.890867C137.417 0.512553 137.682 0.323397 138.033 0.323397C138.24 0.323397 138.413 0.384415 138.551 0.506451C138.69 0.628488 138.799 0.787135 138.886 0.988496C138.966 1.18986 139.024 1.41562 139.058 1.6719C139.093 1.92818 139.11 2.19056 139.11 2.45904C139.11 2.77633 139.093 3.06312 139.053 3.31939C139.012 3.56957 138.949 3.80144 138.863 3.9967C138.782 4.18585 138.672 4.3384 138.534 4.44823L138.528 4.45433ZM138.909 0.170851C138.638 0.0549164 138.35 0 138.039 0C137.728 0 137.434 0.0610182 137.163 0.176953C136.887 0.292888 136.651 0.463739 136.455 0.677303C136.253 0.896968 136.092 1.16545 135.977 1.47664C135.862 1.78783 135.804 2.13564 135.804 2.51395C135.804 2.89227 135.862 3.21566 135.983 3.51465C136.104 3.81364 136.259 4.06382 136.461 4.27738C136.662 4.49094 136.898 4.64959 137.169 4.76553C137.44 4.87536 137.722 4.93638 138.022 4.93638C138.396 4.93638 138.713 4.87536 138.983 4.74722C139.254 4.61908 139.49 4.43603 139.686 4.21026C139.876 3.99059 140.02 3.72211 140.124 3.41702C140.228 3.11193 140.274 2.78853 140.274 2.44683C140.274 2.06242 140.216 1.72071 140.095 1.42783C139.974 1.12884 139.813 0.872561 139.611 0.665099C139.415 0.463739 139.179 0.298989 138.909 0.189157V0.170851ZM135.528 2.6604H133.765V3.38651H135.528V2.6604ZM131.749 4.46654C131.611 4.57637 131.45 4.63129 131.254 4.63129C131.058 4.63129 130.891 4.57637 130.758 4.46654C130.626 4.3567 130.516 4.20416 130.424 4.0089C130.338 3.81364 130.274 3.58787 130.234 3.3316C130.194 3.07532 130.177 2.79464 130.177 2.50175C130.177 1.81224 130.269 1.28138 130.447 0.90307C130.632 0.524757 130.897 0.3356 131.248 0.3356C131.455 0.3356 131.622 0.396619 131.766 0.518655C131.905 0.640692 132.014 0.799339 132.1 1.0007C132.181 1.20206 132.239 1.42783 132.273 1.6841C132.308 1.94038 132.325 2.20276 132.325 2.47124C132.325 2.78853 132.308 3.07532 132.267 3.3316C132.227 3.58177 132.164 3.81364 132.077 4.0089C131.997 4.19806 131.887 4.3506 131.749 4.46043V4.46654ZM132.123 0.183055C131.853 0.0671201 131.565 0.0122036 131.254 0.0122036C130.943 0.0122036 130.649 0.0732219 130.378 0.189157C130.102 0.305091 129.866 0.475942 129.67 0.689506C129.468 0.909172 129.307 1.17765 129.192 1.48885C129.076 1.80004 129.019 2.14784 129.019 2.52616C129.019 2.90447 129.076 3.22787 129.197 3.52686C129.313 3.82584 129.474 4.07602 129.675 4.28958C129.877 4.50315 130.113 4.66179 130.384 4.77773C130.649 4.88756 130.937 4.94858 131.236 4.94858C131.611 4.94858 131.928 4.88756 132.198 4.75942C132.469 4.63129 132.705 4.44823 132.901 4.22246C133.091 4.0028 133.235 3.73432 133.339 3.42923C133.437 3.12413 133.489 2.80074 133.489 2.45904C133.489 2.07462 133.431 1.73292 133.31 1.44003C133.189 1.14104 133.028 0.884765 132.826 0.677303C132.63 0.475942 132.394 0.311193 132.123 0.20136V0.183055ZM129.468 4.57637C129.422 4.57637 129.37 4.56417 129.307 4.55196C129.243 4.53976 129.192 4.52145 129.14 4.49705C129.036 4.44823 128.944 4.38111 128.858 4.29569C128.771 4.21026 128.696 4.12483 128.633 4.03941C128.374 3.6855 128.115 3.31939 127.85 2.94718C127.59 2.57497 127.366 2.25768 127.176 2.0014C127.389 1.75733 127.562 1.56207 127.694 1.40952C127.827 1.25698 127.999 1.07392 128.207 0.860357C128.351 0.713914 128.5 0.610183 128.644 0.549164C128.794 0.488146 128.973 0.439331 129.192 0.414924V0.13424H127.395V0.390517C127.539 0.396619 127.642 0.414924 127.717 0.43323C127.786 0.451535 127.821 0.482044 127.821 0.518655C127.821 0.604081 127.786 0.70171 127.711 0.817645C127.636 0.933579 127.527 1.08612 127.371 1.28138C127.262 1.42173 127.107 1.60478 126.905 1.82445C126.703 2.04411 126.525 2.23327 126.375 2.38581H126.254V0.811543C126.254 0.738321 126.266 0.671201 126.294 0.610183C126.323 0.549164 126.369 0.506451 126.444 0.475942C126.502 0.451535 126.577 0.439331 126.663 0.427128C126.749 0.414924 126.819 0.408822 126.882 0.396619V0.13424H124.612V0.390517C124.664 0.396619 124.733 0.408822 124.82 0.427128C124.906 0.445433 124.981 0.469841 125.039 0.50035C125.114 0.543062 125.165 0.591877 125.188 0.640692C125.212 0.695608 125.223 0.756626 125.223 0.83595V4.15534C125.223 4.24077 125.212 4.30789 125.183 4.3628C125.154 4.41772 125.108 4.46043 125.039 4.49094C124.998 4.50925 124.935 4.52145 124.837 4.52755C124.739 4.53976 124.664 4.54586 124.612 4.54586V4.80214H126.807V4.54586C126.738 4.53976 126.669 4.52145 126.6 4.50315C126.531 4.48484 126.479 4.46654 126.444 4.44823C126.369 4.41162 126.317 4.36281 126.294 4.30789C126.271 4.25297 126.254 4.18585 126.254 4.10653V2.63599H126.404C126.715 3.06922 126.968 3.43533 127.164 3.72211C127.36 4.0089 127.585 4.36891 127.832 4.79603H129.468V4.53976V4.57637ZM122.948 4.47874C122.81 4.58857 122.643 4.64349 122.453 4.64349C122.262 4.64349 122.09 4.58857 121.957 4.47874C121.825 4.36891 121.715 4.21636 121.623 4.0211C121.537 3.82584 121.473 3.60008 121.433 3.3438C121.393 3.08752 121.375 2.80684 121.375 2.51395C121.375 1.82445 121.468 1.29359 121.646 0.915274C121.83 0.536961 122.095 0.347804 122.447 0.347804C122.654 0.347804 122.821 0.408822 122.959 0.530859C123.098 0.652895 123.207 0.811543 123.293 1.0129C123.374 1.21426 123.432 1.44003 123.466 1.69631C123.501 1.95258 123.518 2.21496 123.518 2.48344C123.518 2.80074 123.501 3.08752 123.46 3.3438C123.42 3.59398 123.357 3.82584 123.27 4.0211C123.19 4.21026 123.08 4.36281 122.942 4.47264L122.948 4.47874ZM123.316 0.195258C123.046 0.0793237 122.758 0.0244073 122.447 0.0244073C122.136 0.0244073 121.842 0.0854255 121.571 0.20136C121.295 0.317295 121.059 0.488146 120.857 0.70171C120.655 0.921376 120.494 1.18986 120.379 1.50105C120.264 1.81224 120.206 2.16005 120.206 2.53836C120.206 2.91667 120.264 3.24007 120.385 3.53906C120.5 3.83805 120.661 4.08822 120.863 4.30179C121.064 4.51535 121.301 4.674 121.571 4.78993C121.836 4.89977 122.124 4.96078 122.424 4.96078C122.798 4.96078 123.115 4.89977 123.386 4.77163C123.656 4.64349 123.892 4.46043 124.088 4.23467C124.278 4.015 124.422 3.74652 124.526 3.44143C124.624 3.13634 124.676 2.81294 124.676 2.47124C124.676 2.08682 124.618 1.74512 124.497 1.45223C124.376 1.15324 124.215 0.896968 124.013 0.689506C123.818 0.488146 123.581 0.323397 123.311 0.213564L123.316 0.195258ZM118.76 2.27598C118.593 2.44073 118.351 2.52616 118.035 2.52616H117.914V0.43323H118.156C118.478 0.43323 118.697 0.518655 118.824 0.689506C118.95 0.860357 119.014 1.12274 119.014 1.47054C119.014 1.81834 118.933 2.06852 118.766 2.23937L118.76 2.27598ZM119.757 0.421026C119.492 0.231869 119.094 0.13424 118.559 0.13424H116.278V0.390517C116.324 0.396619 116.393 0.408822 116.479 0.43323C116.572 0.451535 116.641 0.475942 116.698 0.506451C116.773 0.543062 116.825 0.591877 116.848 0.646793C116.871 0.70171 116.883 0.76883 116.883 0.848154V4.14314C116.883 4.23467 116.871 4.30179 116.848 4.3567C116.825 4.40552 116.773 4.44823 116.698 4.48484C116.664 4.50315 116.595 4.51535 116.503 4.52755C116.41 4.53976 116.335 4.54586 116.278 4.55806V4.81434H118.518V4.55806C118.455 4.55196 118.386 4.53976 118.3 4.51535C118.213 4.49705 118.15 4.47874 118.11 4.46043C118.035 4.42382 117.989 4.38111 117.96 4.32009C117.937 4.25907 117.919 4.19195 117.919 4.11263V2.80074H118.259C118.542 2.80074 118.789 2.77023 119.014 2.71531C119.238 2.6604 119.44 2.56887 119.613 2.44683C119.78 2.3309 119.912 2.17225 120.01 1.98309C120.108 1.79394 120.154 1.56817 120.154 1.30579C120.154 0.909172 120.022 0.616284 119.757 0.421026ZM116.099 0.13424H114.308V0.390517C114.36 0.396619 114.446 0.421026 114.573 0.463739C114.7 0.506451 114.786 0.549164 114.838 0.597979C114.907 0.658997 114.959 0.756626 114.993 0.896968C115.028 1.03731 115.045 1.24477 115.045 1.52546V3.11193C115.045 3.56347 114.947 3.90517 114.757 4.13704C114.567 4.36891 114.302 4.48484 113.962 4.48484C113.623 4.48484 113.358 4.38111 113.179 4.16755C113 3.95398 112.908 3.61838 112.908 3.15464V0.805441C112.908 0.726117 112.92 0.658997 112.949 0.597979C112.972 0.536961 113.024 0.494248 113.098 0.463739C113.162 0.439331 113.231 0.421026 113.294 0.408822C113.358 0.396619 113.421 0.390517 113.484 0.384415V0.13424H111.319V0.384415C111.365 0.390517 111.428 0.40272 111.497 0.421026C111.572 0.439331 111.635 0.463739 111.681 0.488146C111.756 0.530859 111.802 0.579673 111.831 0.63459C111.86 0.689506 111.872 0.756626 111.872 0.829848V3.22176C111.872 3.75872 112.033 4.17975 112.355 4.47874C112.678 4.77773 113.133 4.93027 113.72 4.93027C114.227 4.93027 114.631 4.77773 114.936 4.46043C115.241 4.14924 115.397 3.73432 115.397 3.22176V1.49495C115.397 1.20816 115.414 0.994597 115.443 0.854255C115.471 0.713914 115.523 0.610183 115.598 0.555266C115.667 0.50035 115.759 0.457637 115.863 0.43323C115.967 0.408822 116.047 0.396619 116.105 0.390517V0.13424H116.099Z" fill="white"/>
<defs>
<clipPath id="clip0_241_60046">
<rect width="163.641" height="22" fill="white" transform="translate(0.246521)"/>
</clipPath>
</defs>
</svg>
